Coordinates
version=1
nRows=17
nColumns=33
inDegrees=yes

Units are S.I. units (second, meters, Newtons, ...)
Angles are in degrees.

endheader
time	ground_thorax_rot_x	ground_thorax_rot_y	ground_thorax_rot_z	ground_thorax_tx	ground_thorax_ty	ground_thorax_tz	clav_prot_r	clav_elev_r	scapula_abduction_r	scapula_elevation_r	scapula_upward_rot_r	scapula_winging_r	shoulder_elv_r	plane_of_elev_r	axial_rot_r	elbow_flexion_r	pro_sup_r	wrist_flex_r	wrist_dev_r	clav_prot_l	clav_elev_l	scapula_abduction_l	scapula_elevation_l	scapula_upward_rot_l	scapula_winging_l	shoulder_elv_l	plane_of_elev_l	axial_rot_l	elbow_flexion_l	pro_sup_l	wrist_flex_l	wrist_dev_l
      7.41000000	     -3.00662240	      5.14254161	      8.42464471	     -0.09384536	      1.02580749	      0.01368565	     17.12314965	    -13.42034908	     43.31487794	    -13.88137679	     24.20211177	    -12.09064198	     -1.50417824	    -53.94339529	    122.88653832	    -31.27050639	   -124.40108742	     -3.36402601	     10.26366385	     26.38918254	    -11.76092788	    -39.61967700	     -5.35588918	    -25.12931043	     13.59639875	     56.13687300	      2.94419577	      4.29039622	     13.03548898	     21.08116413	     20.92966927	     -4.64514764
      7.42000000	     -2.99744331	      5.19497364	      8.26238280	     -0.09298316	      1.02630024	      0.01384435	     17.32159979	    -13.47194752	     43.71638031	    -13.95363473	     24.34755258	    -12.23430812	     -1.59961226	    -54.27472932	    123.13696001	    -31.35853148	   -124.65126326	     -3.20926593	     10.01841479	     26.53348192	    -11.78924566	    -39.85932738	     -5.22434508	    -24.91296959	     13.74908984	     56.01152980	      3.05482251	      3.92033471	     12.40815161	     20.79609890	     20.90518128	     -4.66286528
      7.43000000	     -2.98950298	      5.21619768	      8.18308376	     -0.09191725	      1.02679813	      0.01407385	     17.34026901	    -13.46971083	     43.71291298	    -13.93993526	     24.30234718	    -12.24007933	     -1.62722924	    -54.31134610	    123.14362242	    -31.33063822	   -124.65433295	     -3.21023367	     10.01664255	     26.53322642	    -11.78570254	    -39.85898306	     -5.23760075	    -24.93373266	     13.74689604	     55.99057580	      3.03819491	      3.92102763	     12.39980016	     20.79014601	     20.90335275	     -4.66425921
      7.44000000	     -2.73810070	      5.40449128	      7.92745891	     -0.09140439	      1.02674146	      0.01422152	     17.61850875	    -13.21685741	     44.25877701	    -13.74768974	     24.44944654	    -12.65983754	     -1.98961199	    -55.13402962	    123.20536883	    -32.06184700	   -125.87169529	     -2.65150529	      9.05520970	     26.70331560	    -11.71880311	    -40.16128761	     -5.13179218	    -24.60525577	     13.97636001	     55.55551918	      3.26813963	      4.00760904	     12.03561123	     19.69520975	     20.27594222	     -4.95867896
      7.45000000	     -2.73455072	      5.40867492	      7.85467057	     -0.09100752	      1.02708244	      0.01444612	     17.62007173	    -13.18569521	     44.22308015	    -13.70631094	     24.39027307	    -12.67238385	     -1.98150954	    -55.23035928	    123.17934498	    -32.01356499	   -125.88176801	     -2.65923681	      9.05388552	     26.69749661	    -11.67539050	    -40.15661271	     -5.17781023	    -24.62661092	     13.98495811	     55.57228636	      3.20702476	      4.01760987	     12.02094674	     19.68894446	     20.27091210	     -4.95781678
      7.46000000	     -2.72632727	      5.38579657	      8.07386370	     -0.09039826	      1.02691728	      0.01488161	     17.64488779	    -12.96690369	     44.02981853	    -13.42519126	     24.02525518	    -12.77925735	     -2.31701170	    -55.11130899	    122.51964041	    -31.89321668	   -127.63642780	     -2.12505120	      8.76900448	     26.52248800	    -11.53239563	    -39.88396139	     -5.38406981	    -24.79271067	     13.83869692	     55.44185538	      2.75987216	      4.71442097	     12.86718312	     18.78150329	     19.82406713	     -5.31916576
      7.47000000	     -2.69360325	      5.41424776	      7.89125753	     -0.09087689	      1.02703715	      0.01482013	     17.94342551	    -13.18911153	     44.69436197	    -13.68491476	     24.35020403	    -12.92345214	     -2.80524815	    -56.14601076	    122.24033154	    -31.28207821	   -136.39255415	     -0.48922825	      6.34824089	     26.49410683	    -11.43078283	    -39.85674718	     -5.42387976	    -24.69268989	     13.85610270	     55.38365538	      2.65043623	      4.00051515	     12.68245414	     15.90694391	     18.86059892	     -5.50017979
      7.48000000	     -2.58591031	      5.44066288	      8.00930232	     -0.09068212	      1.02674560	      0.01518739	     17.84454294	    -12.99233946	     44.19160040	    -13.38347591	     23.80949907	    -12.88789054	     -2.90899586	    -56.13897663	    122.10554805	    -31.87774748	   -136.86180810	     -0.43686675	      6.05064359	     26.30503668	    -11.36245840	    -39.55221788	     -5.53927224	    -24.79404251	     13.67681806	     55.31938945	      2.45711805	      4.50399950	     13.11288546	     15.72554401	     18.85004248	     -5.49292700
      7.49000000	     -2.63203058	      5.50827874	      7.97874304	     -0.09068709	      1.02717841	      0.01528190	     17.56324270	    -13.52148260	     43.15849500	    -13.63072705	     22.96629846	    -12.16518978	     -2.41255868	    -56.27864268	    122.66510619	    -32.15086550	   -142.49319144	      0.22207533	      5.62356416	     25.97151039	    -11.51004841	    -38.98164233	     -5.48482415	    -24.90086178	     13.27865337	     55.77592273	      2.01392758	      4.16444067	     13.58581064	     14.91504309	     19.34197479	     -5.43588980
      7.50000000	     -2.56089514	      5.45178338	      8.04531805	     -0.09092057	      1.02664445	      0.01559087	     17.44652383	    -13.35750261	     42.74147089	    -13.39770590	     22.59625190	    -12.12288349	     -2.50835619	    -56.27759233	    122.50819940	    -32.69521737	   -142.86658513	      0.36104091	      5.48868853	     25.81668393	    -11.31636612	    -38.74996443	     -5.69832953	    -24.99269481	     13.17788231	     55.70107665	      1.81560702	      4.74017596	     14.20501776	     14.69871522	     19.26832793	     -5.60395416
      7.51000000	     -2.71744495	      5.50612446	      8.09124968	     -0.09123373	      1.02669571	      0.01557798	     17.10379334	    -14.00356043	     41.62649548	    -13.74974284	     21.77786595	    -11.27880899	     -2.26041460	    -56.54661540	    123.07278902	    -33.30632652	   -147.87298774	      0.85264745	      5.38779197	     25.63032684	    -11.16030879	    -38.46291813	     -5.86038222	    -25.03620085	     13.03636217	     55.84358887	      1.47593550	      4.80485746	     14.75988736	     13.94446626	     19.38983714	     -5.98422482
      7.52000000	     -2.61988676	      5.50464998	      8.15341041	     -0.09170625	      1.02616504	      0.01599287	     17.01303237	    -13.79126179	     41.14367008	    -13.42466041	     21.23932052	    -11.26224543	     -2.34552894	    -56.37566368	    122.73028691	    -34.08800964	   -148.21372290	      1.04829400	      5.34748303	     25.48344971	    -11.11426411	    -38.22462213	     -5.95027231	    -25.12833867	     12.89549014	     55.87076262	      1.23154258	      5.24735210	     15.34519778	     13.80066662	     19.33393423	     -6.11004750
      7.53000000	     -2.55864029	      5.52055731	      8.50277097	     -0.09233953	      1.02579060	      0.01625461	     16.86421968	    -13.86710347	     40.39957784	    -13.28265372	     20.46487616	    -10.96345468	     -2.52298621	    -56.45924215	    122.49390583	    -34.95012229	   -149.43824491	      1.34459286	      5.77611648	     25.28429001	    -11.18858427	    -37.87739587	     -6.02797735	    -25.40616562	     12.64431262	     55.93733090	      0.79230486	      5.40787310	     16.09332095	     13.64887919	     19.39668265	     -6.31685128
      7.54000000	     -2.54774685	      5.47497133	      8.37651281	     -0.09283530	      1.02523951	      0.01659168	     16.71550228	    -13.77395756	     39.91986806	    -13.09983887	     20.07736713	    -10.84269732	     -2.66471170	    -56.36585879	    122.35447585	    -36.02622480	   -149.95849079	      1.60037200	      5.91400079	     25.11652387	    -11.03583575	    -37.61897653	     -6.20312753	    -25.48545388	     12.51928441	     56.09522979	      0.59211262	      5.84870512	     16.92406233	     13.50146926	     19.36558185	     -6.51352094
      7.55000000	     -2.63586304	      5.55653128	      8.45062535	     -0.09333094	      1.02548540	      0.01661645	     16.44168219	    -14.55157539	     38.77279021	    -13.49160654	     19.03898774	     -9.92702898	     -2.51477569	    -56.69089368	    122.27780666	    -37.47874728	   -152.26087173	      1.65069200	      6.77203084	     24.79136736	    -11.14327362	    -37.06121583	     -6.26892516	    -25.78242769	     12.13311789	     56.58592059	      0.24713665	      5.78872794	     17.82365441	     13.75867426	     19.48019195	     -6.76411112
      7.56000000	     -2.55661974	      5.52569032	      8.41538214	     -0.09391130	      1.02482506	      0.01681929	     16.26257271	    -14.32652458	     38.27063290	    -13.19761565	     18.67528795	     -9.87735342	     -2.75870076	    -56.62849237	    122.22388649	    -38.60731602	   -152.41529076	      1.86905042	      6.68659711	     24.60627369	    -10.93651055	    -36.77867366	     -6.50520008	    -25.89224138	     12.00192309	     56.53717629	      0.13750055	      6.43525540	     18.81262556	     13.63728914	     19.39617847	     -6.98229912
      7.57000000	     -2.50366030	      5.42738752	      8.71302264	     -0.09468478	      1.02436407	      0.01704152	     16.08974983	    -14.27608763	     37.59519096	    -12.97458622	     18.03982620	     -9.66864790	     -3.17098570	    -56.73636254	    122.21518033	    -40.00759369	   -152.65524330	      2.05167488	      6.63343010	     24.38923100	    -10.87323901	    -36.42154939	     -6.72515937	    -26.22256616	     11.77716108	     56.51874735	     -0.17009777	      6.98032169	     19.79064344	     13.77848762	     19.26894005	     -7.19865113
